name rise49.8558peak67.6521fall70.3087.mot
datacolumns 19
datarows 26
range 4.38165300000000 4.42332000000000
endheader
time	ground_force1_vx	ground_force1_vy	ground_force1_vz	ground_force1_px	ground_force1_py	ground_force1_pz	ground_force2_vx	ground_force2_vy	ground_force2_vz	ground_force2_px	ground_force2_py	ground_force2_pz	ground_torque1_x	ground_torque1_y	ground_torque1_z	ground_torque2_x	ground_torque2_y	ground_torque2_z	
4.38165300000000	-15.59530400000000	45.42483600000000	-13.74942400000000	0.35822200000000	0.00000000000000	0.08493900000000	-65.48597599999999	803.46581400000002	-55.87097700000000	0.10197400000000	0.00000000000000	-0.11021000000000	0.00000000000000	-8.72996500000000	0.00000000000000	0.00000000000000	-23.85900400000000	0.00000000000000	
4.38332100000000	-16.91399800000000	51.60579200000000	-15.16475900000000	0.35975300000000	0.00000000000000	0.08588600000000	-65.80345600000000	800.60595999999998	-55.48598500000000	0.10125300000000	0.00000000000000	-0.11013800000000	0.00000000000000	-9.68897000000000	0.00000000000000	0.00000000000000	-23.77111300000000	0.00000000000000	
4.38508300000000	-17.98338800000000	57.65084600000000	-16.41770800000000	0.36126500000000	0.00000000000000	0.08679200000000	-66.12563100000000	797.66817300000002	-55.08359500000000	0.10053500000000	0.00000000000000	-0.11006300000000	0.00000000000000	-10.55984800000000	0.00000000000000	0.00000000000000	-23.68288600000000	0.00000000000000	
4.38665400000000	-18.78239400000000	63.49876200000000	-17.48716500000000	0.36276000000000	0.00000000000000	0.08766100000000	-66.45283600000000	794.65319199999999	-54.66406400000000	0.09982000000000	0.00000000000000	-0.10998300000000	0.00000000000000	-11.32885500000000	0.00000000000000	0.00000000000000	-23.59448000000000	0.00000000000000	
4.38831300000000	-19.30422500000000	69.11542400000000	-18.36288300000000	0.36423900000000	0.00000000000000	0.08849700000000	-66.78538399999999	791.56167800000003	-54.22765900000000	0.09910800000000	0.00000000000000	-0.10989900000000	0.00000000000000	-11.98870200000000	0.00000000000000	0.00000000000000	-23.50604500000000	0.00000000000000	
4.38999300000000	-19.55508800000000	74.49279700000000	-19.04471400000000	0.36570400000000	0.00000000000000	0.08930200000000	-67.12355599999999	788.39421500000003	-53.77466000000000	0.09840000000000	0.00000000000000	-0.10981100000000	0.00000000000000	-12.53816700000000	0.00000000000000	0.00000000000000	-23.41773100000000	0.00000000000000	
4.39164900000000	-19.55204700000000	79.64591000000000	-19.54115200000000	0.36715600000000	0.00000000000000	0.09007800000000	-67.46760600000000	785.15130099999999	-53.30535800000000	0.09769500000000	0.00000000000000	-0.10971900000000	0.00000000000000	-12.98127800000000	0.00000000000000	0.00000000000000	-23.32968000000000	0.00000000000000	
4.39331500000000	-19.32034300000000	84.60844800000000	-19.86741500000000	0.36859500000000	0.00000000000000	0.09082900000000	-67.81775200000000	781.83334100000002	-52.82005100000000	0.09699500000000	0.00000000000000	-0.10962200000000	0.00000000000000	-13.32620300000000	0.00000000000000	0.00000000000000	-23.24202900000000	0.00000000000000	
4.39498200000000	-18.89051000000000	89.42756400000000	-20.04331100000000	0.37002100000000	0.00000000000000	0.09155500000000	-68.17418000000001	778.44064900000001	-52.31904900000000	0.09629800000000	0.00000000000000	-0.10952100000000	0.00000000000000	-13.58399100000000	0.00000000000000	0.00000000000000	-23.15491000000000	0.00000000000000	
4.39664900000000	-18.29554100000000	94.15847300000000	-20.09109800000000	0.37143500000000	0.00000000000000	0.09225800000000	-68.53703299999999	774.97343699999999	-51.80267000000000	0.09560600000000	0.00000000000000	-0.10941500000000	0.00000000000000	-13.76729800000000	0.00000000000000	0.00000000000000	-23.06844800000000	0.00000000000000	
4.39832200000000	-17.56833500000000	98.85930300000000	-20.03351000000000	0.37283700000000	0.00000000000000	0.09294000000000	-68.90641700000000	771.43181900000002	-51.27124000000000	0.09491800000000	0.00000000000000	-0.10930500000000	0.00000000000000	-13.88920300000000	0.00000000000000	0.00000000000000	-22.98275900000000	0.00000000000000	
4.39999500000000	-16.73958600000000	103.58657700000001	-19.89208900000000	0.37422600000000	0.00000000000000	0.09360200000000	-69.28239300000000	767.81579999999997	-50.72509300000000	0.09423500000000	0.00000000000000	-0.10919000000000	0.00000000000000	-13.96218100000000	0.00000000000000	0.00000000000000	-22.89795200000000	0.00000000000000	
4.40165100000000	-15.83618400000000	108.39155500000000	-19.68588900000000	0.37560200000000	0.00000000000000	0.09424500000000	-69.66497600000000	764.12528199999997	-50.16456900000000	0.09355800000000	0.00000000000000	-0.10907100000000	0.00000000000000	-13.99731000000000	0.00000000000000	0.00000000000000	-22.81412700000000	0.00000000000000	
4.40331400000000	-14.88018300000000	113.31758800000000	-19.43059200000000	0.37696400000000	0.00000000000000	0.09486900000000	-70.05413299999999	760.36005799999998	-49.59001700000000	0.09288500000000	0.00000000000000	-0.10894700000000	0.00000000000000	-14.00370700000000	0.00000000000000	0.00000000000000	-22.73137400000000	0.00000000000000	
4.40499700000000	-13.88830200000000	118.39848600000001	-19.13803900000000	0.37831200000000	0.00000000000000	0.09547700000000	-70.44977900000001	756.51981300000000	-49.00179100000000	0.09221900000000	0.00000000000000	-0.10881800000000	0.00000000000000	-13.98821900000000	0.00000000000000	0.00000000000000	-22.64977200000000	0.00000000000000	
4.40665400000000	-12.87190800000000	123.65786100000000	-18.81612500000000	0.37964600000000	0.00000000000000	0.09606700000000	-70.85177600000000	752.60412499999995	-48.40025200000000	0.09155900000000	0.00000000000000	-0.10868500000000	0.00000000000000	-13.95533000000000	0.00000000000000	0.00000000000000	-22.56938900000000	0.00000000000000	
4.40831800000000	-11.83738700000000	129.10930200000001	-18.46900400000000	0.38096300000000	0.00000000000000	0.09664200000000	-71.25993300000000	748.61246300000005	-47.78576500000000	0.09090500000000	0.00000000000000	-0.10854600000000	0.00000000000000	-13.90726600000000	0.00000000000000	0.00000000000000	-22.49028200000000	0.00000000000000	
4.40999000000000	-10.78682100000000	134.75722300000001	-18.09754700000000	0.38226400000000	0.00000000000000	0.09720100000000	-71.67399899999999	744.54419299999995	-47.15870100000000	0.09025800000000	0.00000000000000	-0.10840400000000	0.00000000000000	-13.84424400000000	0.00000000000000	0.00000000000000	-22.41249500000000	0.00000000000000	
4.41164600000000	-9.71884200000000	140.59819300000001	-17.69994300000000	0.38354700000000	0.00000000000000	0.09774600000000	-72.09366400000000	740.39857800000004	-46.51943900000000	0.08961900000000	0.00000000000000	-0.10825600000000	0.00000000000000	-13.76483300000000	0.00000000000000	0.00000000000000	-22.33605900000000	0.00000000000000	
4.41332000000000	-8.62958400000000	146.62256700000000	-17.27240400000000	0.38481200000000	0.00000000000000	0.09827600000000	-72.51855900000000	736.17477899999994	-45.86835800000000	0.08898600000000	0.00000000000000	-0.10810400000000	0.00000000000000	-13.66636100000000	0.00000000000000	0.00000000000000	-22.26099100000000	0.00000000000000	
4.41499400000000	-7.51364000000000	152.81622899999999	-16.80987700000000	0.38605700000000	0.00000000000000	0.09879200000000	-72.94825200000000	731.87186399999996	-45.20584500000000	0.08836200000000	0.00000000000000	-0.10794700000000	0.00000000000000	-13.54535400000000	0.00000000000000	0.00000000000000	-22.18729500000000	0.00000000000000	
4.41664600000000	-6.36494100000000	159.16230300000001	-16.30673000000000	0.38728200000000	0.00000000000000	0.09929500000000	-73.38224599999999	727.48880999999994	-44.53229200000000	0.08774500000000	0.00000000000000	-0.10778500000000	0.00000000000000	-13.39794900000000	0.00000000000000	0.00000000000000	-22.11495900000000	0.00000000000000	
4.41831300000000	-5.17753200000000	165.64271400000001	-15.75734600000000	0.38848400000000	0.00000000000000	0.09978400000000	-73.81998100000000	723.02450499999998	-43.84809500000000	0.08713700000000	0.00000000000000	-0.10761800000000	0.00000000000000	-13.22026800000000	0.00000000000000	0.00000000000000	-22.04395800000000	0.00000000000000	
4.41999600000000	-3.94617100000000	172.23950900000000	-15.15661600000000	0.38966400000000	0.00000000000000	0.10026000000000	-74.26083000000000	718.47775999999999	-43.15365300000000	0.08653800000000	0.00000000000000	-0.10744700000000	0.00000000000000	-13.00871900000000	0.00000000000000	0.00000000000000	-21.97425000000000	0.00000000000000	
4.42165100000000	-2.66677900000000	178.93588600000001	-14.50030500000000	0.39081900000000	0.00000000000000	0.10072400000000	-74.70410300000000	713.84731199999999	-42.44937400000000	0.08594800000000	0.00000000000000	-0.10727100000000	0.00000000000000	-12.76023900000000	0.00000000000000	0.00000000000000	-21.90578000000000	0.00000000000000	
4.42332000000000	-1.33671100000000	185.71691899999999	-13.78529400000000	0.39194900000000	0.00000000000000	0.10117500000000	-75.14904000000000	709.13183000000004	-41.73566600000000	0.08536700000000	0.00000000000000	-0.10709000000000	0.00000000000000	-12.47244900000000	0.00000000000000	0.00000000000000	-21.83847500000000	0.00000000000000	
